<svg width="1048" height="776" viewBox="0 0 1048 776" fill="none" xmlns="http://www.w3.org/2000/svg">
<rect y="0.000183105" width="1047.3" height="776" fill="#23B957"/>
<path d="M172.682 0L2.50015 186H54.5002L172.682 51.8606L254.396 186H314.5L172.682 0Z" fill="#1EA750"/>
<path d="M162.04 372L333.474 185H281.091L162.04 319.861L79.7239 185H19.1776L162.04 372Z" fill="#1EA750"/>
<path d="M166.011 93.0002L72.4487 186H101.037L166.011 118.931L210.936 186H243.98L166.011 93.0002Z" fill="#1EA750" stroke="#1EA750" stroke-width="6"/>
<path d="M168.529 278L262.092 184H233.503L168.529 251.791L123.604 184H90.5603L168.529 278Z" fill="#1EA750" stroke="#1EA750" stroke-width="6"/>
<path d="M311.155 150L444.5 3.99999H415.143L311.155 99.251L230.993 3.99999H199.5L311.155 150Z" fill="#1EA750"/>
<path d="M317.946 56L391.5 6L370.369 6L317.946 31.0389L277.67 6L259.5 6L317.946 56Z" fill="#1EA750" stroke="#1EA750" stroke-width="6"/>
<path d="M24.7467 149L156.5 0.999994H127.493L24.7467 97.5558L2.50012 52.8L2.50012 97.5558L24.7467 149Z" fill="#1EA750"/>
<path d="M30.3699 55L102.5 4L81.7778 4L30.3699 29.5397L4.50018 7.88571V26.8286L30.3699 55Z" fill="#1EA750" stroke="#1EA750" stroke-width="6"/>
<path d="M42.6638 682.791L136.542 771.871L112.862 770.304L37.9084 711.281L9.86072 736.647L9.88338 718.767L42.6638 682.791Z" fill="#1EA750"/>
<path d="M33.4508 730.494L82.2647 770.915L72.0913 770.908L61.4336 770.9L31.0157 745.083L6.18079 756L6.16137 745.065L33.4508 730.494Z" fill="#1EA750" stroke="#1EA750" stroke-width="6"/>
<path d="M604.699 149L737.5 2.99999H708.263L604.699 98.251L524.864 2.99999H493.5L604.699 149Z" fill="#1EA750"/>
<path d="M610.946 55L684.5 6L663.369 6L610.946 30.5382L570.67 6L552.5 6L610.946 55Z" fill="#1EA750" stroke="#1EA750" stroke-width="6"/>
<path d="M908.36 153L1041.44 2.99999H1012.14L908.36 100.861L828.357 2.99999H796.927L908.36 153Z" fill="#1EA750"/>
<path d="M914.849 59.0002L988.169 6.50021L967.105 6.50021L914.849 32.7911L874.703 6.50021L856.591 6.50021L914.849 59.0002Z" fill="#1EA750" stroke="#1EA750" stroke-width="6"/>
<path d="M921.858 179.775L1022.51 319.466L1021.72 277.759L965.373 175.482L1018.32 98.1378L1017.37 47.9006L921.858 179.775Z" fill="#1EA750"/>
<path d="M993.925 180.638L1036.44 244.091L1035.97 222.455L1016.93 178.369L1034.14 139.002L1033.72 119.942L993.925 180.638Z" fill="#1EA750" stroke="#1EA750" stroke-width="6"/>
<path d="M948.428 586.306L1027.84 703.02L1027.15 668.217L982.657 582.789L1024.19 518.328L1023.36 476.407L948.428 586.306Z" fill="#1EA750"/>
<path d="M1004.97 584.237L1038.68 634.907L1038.37 617.587L1023.33 582.351L1037.18 550.783L1036.91 535.526L1004.97 584.237Z" fill="#1EA750" stroke="#1EA750" stroke-width="6"/>
<path d="M145.966 389.442L5.2162 227.456L5.37332 265.252L106.001 394.048L43.5543 487.519L44.6586 527.853L145.966 389.442Z" fill="#1EA750"/>
<path d="M89.211 395.704L44.3155 332.153L44.7838 357.174L67.2029 398.24L46.2583 435.942L46.6573 457.256L89.211 395.704Z" fill="#1EA750" stroke="#1EA750" stroke-width="6"/>
<path d="M57.3109 399.467L15.2683 336.529L15.9019 361.187L36.9709 401.811L17.8965 438.815L18.4362 459.82L57.3109 399.467Z" fill="#1EA750" stroke="#1EA750" stroke-width="6"/>
<path d="M160.393 150L121.457 187H133.354L160.393 160.316L179.089 187H192.84L160.393 150Z" fill="#1EA750" stroke="#1EA750" stroke-width="6"/>
<path d="M153.904 224L192.84 187H180.943L153.904 213.684L135.208 187H121.457L153.904 224Z" fill="#1EA750" stroke="#1EA750" stroke-width="6"/>
<path d="M320.592 217L149.158 404H201.541L320.592 269.139L402.908 404H463.454L320.592 217Z" fill="#1EA750"/>
<path d="M311.197 588L482.632 401H430.249L311.197 535.861L228.882 401H168.335L311.197 588Z" fill="#1EA750"/>
<path d="M315.168 310L221.605 403H250.194L315.168 335.93L360.093 403H393.137L315.168 310Z" fill="#1EA750" stroke="#1EA750" stroke-width="6"/>
<path d="M317.687 494L411.249 400H382.661L317.687 467.791L272.762 400H239.718L317.687 494Z" fill="#1EA750" stroke="#1EA750" stroke-width="6"/>
<path d="M309.55 367L270.614 404H282.511L309.55 377.316L328.245 404H341.997L309.55 367Z" fill="#1EA750" stroke="#1EA750" stroke-width="6"/>
<path d="M303.061 440L341.997 403H330.099L303.061 429.684L284.365 403H270.614L303.061 440Z" fill="#1EA750" stroke="#1EA750" stroke-width="6"/>
<path d="M615.711 223L444.277 410H496.66L615.711 275.139L698.027 410H758.573L615.711 223Z" fill="#1EA750"/>
<path d="M606.316 595L777.75 408H725.368L606.316 542.861L524 408H463.454L606.316 595Z" fill="#1EA750"/>
<path d="M610.287 316L516.725 409H545.313L610.287 341.93L655.212 409H688.256L610.287 316Z" fill="#1EA750" stroke="#1EA750" stroke-width="6"/>
<path d="M612.808 501L706.37 407H677.782L612.808 474.791L567.883 407H534.839L612.808 501Z" fill="#1EA750" stroke="#1EA750" stroke-width="6"/>
<path d="M604.671 373L565.735 410H577.632L604.671 383.316L623.366 410H637.117L604.671 373Z" fill="#1EA750" stroke="#1EA750" stroke-width="6"/>
<path d="M598.181 447L637.117 410H625.22L598.181 436.684L579.486 410H565.735L598.181 447Z" fill="#1EA750" stroke="#1EA750" stroke-width="6"/>
<path d="M162.382 407L2.50015 610.5L22.2826 629L162.382 468.898L259.25 629H330.5L162.382 407Z" fill="#1EA750"/>
<path d="M150.905 773L352.5 626H290.902L155.526 753.953L54.107 626L2.50014 633.326L150.905 773Z" fill="#1EA750"/>
<path d="M154.679 517L43.6819 627H77.5976L154.679 547.67L207.975 627H247.176L154.679 517Z" fill="#1EA750" stroke="#1EA750" stroke-width="6"/>
<path d="M157.488 737L268.484 625H234.569L157.488 705.772L104.192 625H64.9905L157.488 737Z" fill="#1EA750" stroke="#1EA750" stroke-width="6"/>
<path d="M148.189 585L102.28 629H116.308L148.189 597.268L170.233 629H186.447L148.189 585Z" fill="#1EA750" stroke="#1EA750" stroke-width="6"/>
<path d="M333.667 661L222.671 771H256.587L333.667 691.67L386.963 771H426.165L333.667 661Z" fill="#1EA750" stroke="#1EA750" stroke-width="6"/>
<path d="M327.179 729L281.5 772.5H295L327.179 741.268L349 772.5H365L327.179 729Z" fill="#1EA750" stroke="#1EA750" stroke-width="6"/>
<path d="M628.787 662L517.791 772H551.706L628.787 692.67L682.083 772H721.284L628.787 662Z" fill="#1EA750" stroke="#1EA750" stroke-width="6"/>
<path d="M622.773 730L578 772H592L622.773 741.989L643.5 772H660.5L622.773 730Z" fill="#1EA750" stroke="#1EA750" stroke-width="6"/>
<path d="M937.757 662L826.761 772H860.676L937.757 692.67L991.053 772H1030.25L937.757 662Z" fill="#1EA750" stroke="#1EA750" stroke-width="6"/>
<path d="M931.773 730L886.5 773H900.333L931.773 741.989L953.511 773H969.5L931.773 730Z" fill="#1EA750" stroke="#1EA750" stroke-width="6"/>
<path d="M140.537 673L186.447 629H172.419L140.537 660.732L118.493 629H102.279L140.537 673Z" fill="#1EA750" stroke="#1EA750" stroke-width="6"/>
<path d="M467.619 429L296.185 616H348.568L467.619 481.139L549.935 616H610.481L467.619 429Z" fill="#1EA750"/>
<path d="M458.224 773L629.658 614H577.276L458.224 748.861L375.908 614H315.362L458.224 773Z" fill="#1EA750"/>
<path d="M462.195 522L368.632 615H397.221L462.195 547.93L507.12 615H540.164L462.195 522Z" fill="#1EA750" stroke="#1EA750" stroke-width="6"/>
<path d="M464.714 707L558.276 613H529.688L464.714 680.791L419.789 613H386.745L464.714 707Z" fill="#1EA750" stroke="#1EA750" stroke-width="6"/>
<path d="M456.578 579L417.642 616H429.539L456.578 589.316L475.274 616H489.025L456.578 579Z" fill="#1EA750" stroke="#1EA750" stroke-width="6"/>
<path d="M450.088 653L489.024 616H477.127L450.088 642.684L431.393 616H417.642L450.088 653Z" fill="#1EA750" stroke="#1EA750" stroke-width="6"/>
<path d="M776.588 430L605.154 617H657.537L776.588 482.139L858.904 617H919.45L776.588 430Z" fill="#1EA750"/>
<path d="M767.227 774L938.5 615H886.167L767.227 747.363L684.989 615H624.5L767.227 774Z" fill="#1EA750"/>
<path d="M771.164 523L677.602 616H706.19L771.164 548.93L816.089 616H849.133L771.164 523Z" fill="#1EA750" stroke="#1EA750" stroke-width="6"/>
<path d="M773.683 708L867.246 614H838.657L773.683 681.791L728.758 614H695.714L773.683 708Z" fill="#1EA750" stroke="#1EA750" stroke-width="6"/>
<path d="M765.548 580L726.612 617H738.509L765.548 590.316L784.243 617H797.994L765.548 580Z" fill="#1EA750" stroke="#1EA750" stroke-width="6"/>
<path d="M759.057 654L797.993 617H786.096L759.057 643.684L740.362 617H726.611L759.057 654Z" fill="#1EA750" stroke="#1EA750" stroke-width="6"/>
<path d="M926.811 224L755.377 411H807.76L926.811 276.139L1009.13 411L1047.3 406L926.811 224Z" fill="#1EA750"/>
<path d="M917.416 596L1047.83 411H1013.74L917.416 543.861L835.1 409H774.553L917.416 596Z" fill="#1EA750"/>
<path d="M921.388 317L827.825 410H856.414L921.388 342.93L966.313 410H999.356L921.388 317Z" fill="#1EA750" stroke="#1EA750" stroke-width="6"/>
<path d="M923.907 502L1017.47 408H988.881L923.907 475.791L878.982 408H845.938L923.907 502Z" fill="#1EA750" stroke="#1EA750" stroke-width="6"/>
<path d="M915.77 374L876.834 411H888.731L915.77 384.316L934.465 411H948.217L915.77 374Z" fill="#1EA750" stroke="#1EA750" stroke-width="6"/>
<path d="M909.282 448L948.218 411H936.321L909.282 437.684L890.587 411H876.835L909.282 448Z" fill="#1EA750" stroke="#1EA750" stroke-width="6"/>
<path d="M468.773 3L297.5 186H349.834L468.773 54.0241L551.011 186H611.5L468.773 3Z" fill="#1EA750"/>
<path d="M459.29 371L630.725 184H578.342L459.29 318.861L376.974 184H316.428L459.29 371Z" fill="#1EA750"/>
<path d="M463.26 92.0002L369.697 185H398.286L463.26 117.931L508.185 185H541.229L463.26 92.0002Z" fill="#1EA750" stroke="#1EA750" stroke-width="6"/>
<path d="M465.779 277L559.342 183H530.753L465.779 250.791L420.854 183H387.811L465.779 277Z" fill="#1EA750" stroke="#1EA750" stroke-width="6"/>
<path d="M457.643 149L418.707 186H430.604L457.643 159.316L476.338 186H490.09L457.643 149Z" fill="#1EA750" stroke="#1EA750" stroke-width="6"/>
<path d="M451.153 223L490.089 186H478.192L451.153 212.684L432.458 186H418.707L451.153 223Z" fill="#1EA750" stroke="#1EA750" stroke-width="6"/>
<path d="M768.065 0.000183105L596.631 187H649.013L768.065 52.1396L850.381 187H910.927L768.065 0.000183105Z" fill="#1EA750"/>
<path d="M758.669 372L930.104 185H877.721L758.669 319.861L676.354 185H615.807L758.669 372Z" fill="#1EA750"/>
<path d="M762.642 93.0002L669.079 186H697.668L762.642 118.931L807.566 186H840.61L762.642 93.0002Z" fill="#1EA750" stroke="#1EA750" stroke-width="6"/>
<path d="M765.16 278L858.722 184H830.134L765.16 251.791L720.235 184H687.191L765.16 278Z" fill="#1EA750" stroke="#1EA750" stroke-width="6"/>
<path d="M757.024 150L718.088 187H729.985L757.024 160.316L775.719 187H789.47L757.024 150Z" fill="#1EA750" stroke="#1EA750" stroke-width="6"/>
<path d="M750.534 224L789.47 187H777.573L750.534 213.684L731.839 187H718.088L750.534 224Z" fill="#1EA750" stroke="#1EA750" stroke-width="6"/>
</svg>
