<svg width="755" height="755" viewBox="0 0 755 755" fill="none" xmlns="http://www.w3.org/2000/svg">
<path d="M377.1 0C169.1 0 0 169.2 0 377.1C0 585 169.2 754.2 377.1 754.2C585 754.2 754.2 585 754.2 377.1C754.2 169.2 585 0 377.1 0Z" fill="white"/>
<path d="M583.9 118.7C537.8 238.5 415.4 223 329.1 226L308.1 307.7C414.6 220.9 555.3 307 540.3 437.9C530.2 526.1 467.3 583.8 400.8 600.4C328.3 618.5 248 591.4 212 517.6C208.2 509.8 201.5 494.2 199 485.8L275.4 466.2C276.7 470.6 279 474.9 281.4 478.7C332.6 561.2 436.2 519.9 448 434.3C459.9 347.2 337.7 300.8 282 402.6L214.2 373.7L213 373.2L238.2 271.9C242.2 253.9 254.2 206.8 255.6 202.3C257.8 195.3 258.2 192.9 260.7 186.5C304.3 72.4 390.2 60.9 466.5 60.9C469.6 60.9 472.6 60.9 475.6 61C444.5 51.3 411.4 46.1 377.1 46.1C194.3 46.1 46.1 194.3 46.1 377.1C46.1 559.9 194.3 708.1 377.1 708.1C559.9 708.1 708.1 559.9 708.1 377.1C708.1 272.6 659.6 179.4 583.9 118.7Z" fill="#EB2316"/>
<path d="M553.8 96.4C541 136.3 518.6 161.3 484 174.8C448 188.8 404.2 189.2 361.8 189.5C339 189.7 317.2 189.9 297.2 192.3C333.2 105.4 397.7 96.9 466.6 96.9C476.2 96.9 485.8 97.1 495.1 97.3C504.4 97.5 513.2 97.7 521.9 97.7C534.3 97.6 544.6 97.2 553.8 96.4Z" fill="#008F32"/>
</svg>
