<svg width="55" height="50" viewBox="0 0 55 50" fill="none" xmlns="http://www.w3.org/2000/svg">
<g clip-path="url(#clip0_11_24)">
<path d="M27.4802 0C17.1646 0 8.77818 8.46 8.77818 18.855C8.77818 29.25 17.1695 37.71 27.4802 37.71C37.7908 37.71 46.1821 29.25 46.1821 18.855C46.1821 8.46 37.7908 0 27.4802 0Z" fill="white"/>
<path d="M37.7362 5.935C35.45 11.925 29.3796 11.15 25.0996 11.3L24.0582 15.385C29.3399 11.045 36.3179 15.35 35.5739 21.895C35.073 26.305 31.9536 29.19 28.6555 30.02C25.06 30.925 21.0775 29.57 19.2922 25.88C19.1037 25.49 18.7714 24.71 18.6474 24.29L22.4364 23.31C22.5009 23.53 22.615 23.745 22.734 23.935C25.2732 28.06 30.4112 25.995 30.9964 21.715C31.5866 17.36 25.5261 15.04 22.7638 20.13L19.4013 18.685L19.3417 18.66L20.5915 13.595C20.7899 12.695 21.385 10.34 21.4545 10.115C21.5636 9.765 21.5834 9.645 21.7074 9.325C23.8697 3.62 28.1298 3.045 31.9139 3.045C32.0676 3.045 32.2164 3.045 32.3652 3.05C30.8228 2.565 29.1812 2.305 27.4802 2.305C18.4143 2.305 11.0645 9.715 11.0645 18.855C11.0645 27.995 18.4143 35.405 27.4802 35.405C36.546 35.405 43.8959 27.995 43.8959 18.855C43.8959 13.63 41.4905 8.97 37.7362 5.935Z" fill="#EB2316"/>
<path d="M36.2435 4.82C35.6087 6.815 34.4977 8.065 32.7818 8.74C30.9964 9.44 28.8242 9.46 26.7214 9.475C25.5906 9.485 24.5095 9.495 23.5176 9.615C25.303 5.27 28.5018 4.845 31.9188 4.845C32.3949 4.845 32.8711 4.855 33.3323 4.865C33.7935 4.875 34.2299 4.885 34.6614 4.885C35.2764 4.88 35.7872 4.86 36.2435 4.82Z" fill="#008F32"/>
<path d="M1.3569 47.85C1.22597 47.85 1.11587 47.805 1.0266 47.715C0.937331 47.625 0.892696 47.514 0.892696 47.382V41.289C0.892696 41.151 0.937331 41.04 1.0266 40.956C1.11587 40.866 1.22597 40.821 1.3569 40.821H6.10604C6.24292 40.821 6.35302 40.866 6.43634 40.956C6.52561 41.04 6.57024 41.151 6.57024 41.289V47.382C6.57024 47.514 6.52561 47.625 6.43634 47.715C6.35302 47.805 6.24292 47.85 6.10604 47.85C5.97511 47.85 5.86501 47.805 5.77574 47.715C5.68647 47.625 5.64184 47.514 5.64184 47.382V41.649H1.8211V47.382C1.8211 47.514 1.77647 47.625 1.6872 47.715C1.60388 47.805 1.49378 47.85 1.3569 47.85ZM11.3545 47.85C11.2296 47.85 11.1254 47.808 11.0421 47.724C10.9588 47.634 10.9171 47.523 10.9171 47.391V46.203H9.65843V46.086C9.34301 46.086 9.0633 46.023 8.81929 45.897C8.57529 45.771 8.38485 45.597 8.24797 45.375C8.11109 45.153 8.04265 44.895 8.04265 44.601C8.04265 44.283 8.11704 43.998 8.26582 43.746C8.42055 43.494 8.62885 43.296 8.89071 43.152C9.15852 43.002 9.46501 42.927 9.81019 42.927H11.3545C11.4914 42.927 11.6015 42.969 11.6848 43.053C11.7682 43.137 11.8098 43.248 11.8098 43.386V47.4C11.8039 47.532 11.7592 47.64 11.6759 47.724C11.5986 47.808 11.4914 47.85 11.3545 47.85ZM8.18548 47.742C8.09026 47.658 8.04562 47.565 8.05157 47.463C8.05752 47.361 8.09323 47.268 8.1587 47.184L9.24779 45.753H10.4351L8.90856 47.67C8.80739 47.802 8.68241 47.865 8.53363 47.859C8.38485 47.853 8.2688 47.814 8.18548 47.742ZM9.81019 45.447H10.9171V43.782H9.81019C9.57213 43.782 9.36384 43.86 9.1853 44.016C9.00676 44.166 8.91749 44.361 8.91749 44.601C8.91749 44.853 9.00676 45.057 9.1853 45.213C9.36384 45.369 9.57213 45.447 9.81019 45.447ZM19.8275 47.859C19.6966 47.859 19.5865 47.817 19.4972 47.733C19.4139 47.643 19.3722 47.532 19.3722 47.4V44.826C19.3722 44.448 19.28 44.169 19.0955 43.989C18.911 43.803 18.67 43.71 18.3724 43.71C18.063 43.71 17.8071 43.818 17.6047 44.034C17.4083 44.25 17.3101 44.526 17.3101 44.862H16.5692C16.5692 44.472 16.6525 44.13 16.8191 43.836C16.9858 43.536 17.2179 43.302 17.5154 43.134C17.819 42.966 18.1641 42.882 18.551 42.882C18.8902 42.882 19.1907 42.957 19.4526 43.107C19.7144 43.257 19.9168 43.479 20.0596 43.773C20.2084 44.061 20.2828 44.412 20.2828 44.826V47.4C20.2828 47.532 20.2411 47.643 20.1578 47.733C20.0745 47.817 19.9644 47.859 19.8275 47.859ZM13.8732 47.859C13.7423 47.859 13.6322 47.817 13.5429 47.733C13.4596 47.643 13.418 47.532 13.418 47.4V43.395C13.418 43.257 13.4596 43.146 13.5429 43.062C13.6322 42.978 13.7423 42.936 13.8732 42.936C14.0101 42.936 14.1202 42.978 14.2035 43.062C14.2869 43.146 14.3285 43.257 14.3285 43.395V47.4C14.3285 47.532 14.2869 47.643 14.2035 47.733C14.1202 47.817 14.0101 47.859 13.8732 47.859ZM16.8548 47.859C16.7239 47.859 16.6138 47.817 16.5245 47.733C16.4412 47.643 16.3996 47.532 16.3996 47.4V44.826C16.3996 44.448 16.3073 44.169 16.1228 43.989C15.9383 43.803 15.6973 43.71 15.3998 43.71C15.0903 43.71 14.8344 43.818 14.632 44.034C14.4297 44.25 14.3285 44.526 14.3285 44.862H13.7661C13.7661 44.472 13.8435 44.13 13.9982 43.836C14.153 43.536 14.3672 43.302 14.641 43.134C14.9147 42.966 15.2272 42.882 15.5783 42.882C15.9175 42.882 16.2181 42.957 16.4799 43.107C16.7418 43.257 16.9441 43.479 17.0869 43.773C17.2357 44.061 17.3101 44.412 17.3101 44.826V47.4C17.3101 47.532 17.2685 47.643 17.1851 47.733C17.1018 47.817 16.9917 47.859 16.8548 47.859ZM24.09 47.886C23.596 47.886 23.1556 47.781 22.7688 47.571C22.3879 47.355 22.0873 47.061 21.8671 46.689C21.6529 46.311 21.5458 45.879 21.5458 45.393C21.5458 44.901 21.6469 44.469 21.8493 44.097C22.0576 43.719 22.3432 43.425 22.7063 43.215C23.0693 42.999 23.4859 42.891 23.956 42.891C24.4202 42.891 24.819 42.996 25.1523 43.206C25.4855 43.41 25.7385 43.695 25.911 44.061C26.0896 44.421 26.1789 44.838 26.1789 45.312C26.1789 45.426 26.1402 45.522 26.0628 45.6C25.9854 45.672 25.8872 45.708 25.7682 45.708H22.1707V44.988H25.7414L25.3754 45.24C25.3695 44.94 25.31 44.673 25.1969 44.439C25.0838 44.199 24.9231 44.01 24.7148 43.872C24.5065 43.734 24.2536 43.665 23.956 43.665C23.6168 43.665 23.3252 43.74 23.0812 43.89C22.8432 44.04 22.6616 44.247 22.5367 44.511C22.4117 44.769 22.3492 45.063 22.3492 45.393C22.3492 45.723 22.4236 46.017 22.5724 46.275C22.7211 46.533 22.9265 46.737 23.1883 46.887C23.4502 47.037 23.7507 47.112 24.09 47.112C24.2744 47.112 24.4619 47.079 24.6523 47.013C24.8487 46.941 25.0065 46.86 25.1255 46.77C25.2147 46.704 25.31 46.671 25.4111 46.671C25.5183 46.665 25.6105 46.695 25.6879 46.761C25.789 46.851 25.8426 46.95 25.8486 47.058C25.8545 47.166 25.8069 47.259 25.7057 47.337C25.5034 47.499 25.2505 47.631 24.9469 47.733C24.6494 47.835 24.3637 47.886 24.09 47.886ZM22.9562 42.171C22.8074 42.171 22.6795 42.12 22.5724 42.018C22.4652 41.91 22.4117 41.781 22.4117 41.631C22.4117 41.487 22.4652 41.361 22.5724 41.253C22.6795 41.145 22.8074 41.091 22.9562 41.091C23.0991 41.091 23.224 41.145 23.3312 41.253C23.4383 41.361 23.4918 41.487 23.4918 41.631C23.4918 41.781 23.4383 41.91 23.3312 42.018C23.224 42.12 23.0991 42.171 22.9562 42.171ZM24.938 42.171C24.7892 42.171 24.6613 42.12 24.5542 42.018C24.453 41.91 24.4024 41.781 24.4024 41.631C24.4024 41.487 24.453 41.361 24.5542 41.253C24.6613 41.145 24.7892 41.091 24.938 41.091C25.0808 41.091 25.2058 41.145 25.3129 41.253C25.4201 41.361 25.4736 41.487 25.4736 41.631C25.4736 41.781 25.4201 41.91 25.3129 42.018C25.2058 42.12 25.0808 42.171 24.938 42.171ZM27.7955 49.956C27.6646 49.956 27.5545 49.911 27.4652 49.821C27.3819 49.737 27.3402 49.629 27.3402 49.497V45.393C27.3462 44.919 27.4563 44.493 27.6705 44.115C27.8848 43.737 28.1764 43.44 28.5453 43.224C28.9143 43.002 29.3309 42.891 29.7951 42.891C30.2653 42.891 30.6848 43.002 31.0538 43.224C31.4228 43.44 31.7144 43.737 31.9287 44.115C32.1489 44.493 32.259 44.919 32.259 45.393C32.259 45.867 32.1578 46.293 31.9554 46.671C31.7591 47.043 31.4883 47.34 31.1431 47.562C30.7979 47.778 30.4081 47.886 29.9737 47.886C29.6225 47.886 29.2982 47.814 29.0006 47.67C28.709 47.52 28.4591 47.319 28.2508 47.067V49.497C28.2508 49.629 28.2091 49.737 28.1258 49.821C28.0425 49.911 27.9324 49.956 27.7955 49.956ZM29.7951 47.076C30.0986 47.076 30.3694 47.004 30.6075 46.86C30.8455 46.71 31.033 46.509 31.1699 46.257C31.3127 45.999 31.3841 45.711 31.3841 45.393C31.3841 45.069 31.3127 44.781 31.1699 44.529C31.033 44.271 30.8455 44.07 30.6075 43.926C30.3694 43.776 30.0986 43.701 29.7951 43.701C29.4976 43.701 29.2268 43.776 28.9828 43.926C28.7447 44.07 28.5572 44.271 28.4204 44.529C28.2835 44.781 28.215 45.069 28.215 45.393C28.215 45.711 28.2835 45.999 28.4204 46.257C28.5572 46.509 28.7447 46.71 28.9828 46.86C29.2268 47.004 29.4976 47.076 29.7951 47.076ZM35.8309 47.886C35.3488 47.886 34.9233 47.781 34.5543 47.571C34.1854 47.355 33.8937 47.061 33.6795 46.689C33.4712 46.311 33.367 45.879 33.367 45.393C33.367 44.901 33.4712 44.469 33.6795 44.097C33.8937 43.719 34.1854 43.425 34.5543 43.215C34.9233 42.999 35.3488 42.891 35.8309 42.891C36.307 42.891 36.7295 42.999 37.0985 43.215C37.4675 43.425 37.7561 43.719 37.9644 44.097C38.1787 44.469 38.2858 44.901 38.2858 45.393C38.2858 45.879 38.1817 46.311 37.9734 46.689C37.7651 47.061 37.4764 47.355 37.1074 47.571C36.7385 47.781 36.3129 47.886 35.8309 47.886ZM35.8309 47.076C36.1404 47.076 36.4141 47.004 36.6522 46.86C36.8902 46.716 37.0747 46.518 37.2056 46.266C37.3425 46.014 37.411 45.723 37.411 45.393C37.411 45.063 37.3425 44.772 37.2056 44.52C37.0747 44.262 36.8902 44.061 36.6522 43.917C36.4141 43.773 36.1404 43.701 35.8309 43.701C35.5214 43.701 35.2477 43.773 35.0096 43.917C34.7716 44.061 34.5841 44.262 34.4472 44.52C34.3103 44.772 34.2419 45.063 34.2419 45.393C34.2419 45.723 34.3103 46.014 34.4472 46.266C34.5841 46.518 34.7716 46.716 35.0096 46.86C35.2477 47.004 35.5214 47.076 35.8309 47.076ZM41.1228 46.374C40.6943 46.374 40.3402 46.275 40.0605 46.077C39.7808 45.879 39.5725 45.609 39.4356 45.267C39.3047 44.919 39.2392 44.52 39.2392 44.07V43.386C39.2392 43.248 39.2809 43.137 39.3642 43.053C39.4534 42.969 39.5635 42.927 39.6945 42.927C39.8314 42.927 39.9415 42.969 40.0248 43.053C40.1081 43.137 40.1497 43.248 40.1497 43.386V44.07C40.1497 44.502 40.2331 44.856 40.3997 45.132C40.5723 45.408 40.8728 45.546 41.3013 45.546C41.6406 45.546 41.9173 45.489 42.1315 45.375C42.3517 45.261 42.4618 45.114 42.4618 44.934H42.935C42.935 45.216 42.8576 45.465 42.7029 45.681C42.5481 45.897 42.3339 46.068 42.0601 46.194C41.7923 46.314 41.4799 46.374 41.1228 46.374ZM42.9171 47.85C42.7862 47.85 42.6761 47.808 42.5868 47.724C42.5035 47.634 42.4618 47.523 42.4618 47.391V43.386C42.4618 43.248 42.5035 43.137 42.5868 43.053C42.6761 42.969 42.7862 42.927 42.9171 42.927C43.054 42.927 43.1641 42.969 43.2474 43.053C43.3307 43.137 43.3724 43.248 43.3724 43.386V47.391C43.3724 47.523 43.3307 47.634 43.2474 47.724C43.1641 47.808 43.054 47.85 42.9171 47.85ZM48.9398 47.742C48.8624 47.814 48.7523 47.85 48.6095 47.85C48.4726 47.844 48.3655 47.802 48.2881 47.724L46.1189 45.375L48.1631 43.071C48.2405 42.987 48.3476 42.939 48.4845 42.927C48.6273 42.915 48.7374 42.945 48.8148 43.017C48.9041 43.101 48.9547 43.197 48.9666 43.305C48.9785 43.407 48.9457 43.5 48.8684 43.584L47.2526 45.33L48.9666 47.184C49.0439 47.262 49.0826 47.355 49.0826 47.463C49.0826 47.565 49.035 47.658 48.9398 47.742ZM45.4047 47.859C45.2738 47.859 45.1696 47.817 45.0923 47.733C45.0149 47.643 44.9762 47.532 44.9762 47.4V43.386C44.9762 43.248 45.0149 43.137 45.0923 43.053C45.1696 42.969 45.2738 42.927 45.4047 42.927C45.5416 42.927 45.6517 42.969 45.735 43.053C45.8243 43.137 45.8689 43.248 45.8689 43.386V44.889H47.0116V45.735H45.8689V47.4C45.8689 47.532 45.8243 47.643 45.735 47.733C45.6517 47.817 45.5416 47.859 45.4047 47.859ZM51.7888 47.886C51.3543 47.886 50.9645 47.778 50.6193 47.562C50.2742 47.34 50.0004 47.043 49.7981 46.671C49.6017 46.293 49.5036 45.867 49.5036 45.393C49.5036 44.919 49.6106 44.493 49.8248 44.115C50.045 43.737 50.3396 43.44 50.7086 43.224C51.0835 43.002 51.5031 42.891 51.9673 42.891C52.4315 42.891 52.8481 43.002 53.2171 43.224C53.5861 43.44 53.8777 43.737 54.0919 44.115C54.3121 44.493 54.4222 44.919 54.4222 45.393H54.0741C54.0741 45.867 53.9729 46.293 53.7706 46.671C53.5742 47.043 53.3034 47.34 52.9582 47.562C52.613 47.778 52.2232 47.886 51.7888 47.886ZM51.9673 47.076C52.2708 47.076 52.5416 47.004 52.7797 46.86C53.0177 46.71 53.2052 46.509 53.3421 46.257C53.4789 45.999 53.5474 45.711 53.5474 45.393C53.5474 45.069 53.4789 44.781 53.3421 44.529C53.2052 44.271 53.0177 44.07 52.7797 43.926C52.5416 43.776 52.2708 43.701 51.9673 43.701C51.6697 43.701 51.399 43.776 51.155 43.926C50.9169 44.07 50.7265 44.271 50.5836 44.529C50.4468 44.781 50.3783 45.069 50.3783 45.393C50.3783 45.711 50.4468 45.999 50.5836 46.257C50.7265 46.509 50.9169 46.71 51.155 46.86C51.399 47.004 51.6697 47.076 51.9673 47.076ZM53.967 47.859C53.836 47.859 53.7259 47.817 53.6367 47.733C53.5533 47.643 53.5117 47.532 53.5117 47.4V46.023L53.6813 45.069L54.4222 45.393V47.4C54.4222 47.532 54.3776 47.643 54.2883 47.733C54.205 47.817 54.0979 47.859 53.967 47.859Z" fill="white"/>
</g>
<defs>
<clipPath id="clip0_11_24">
<rect width="55" height="50" fill="white"/>
</clipPath>
</defs>
</svg>
